<?xml version="1.0" encoding="UTF-8" standalone="no"?>
<!-- Created with Inkscape (http://www.inkscape.org/) -->

<svg
   width="360mm"
   height="200mm"
   viewBox="0 0 360 200"
   version="1.1"
   id="svg5"
   inkscape:version="1.3 (0e150ed6c4, 2023-07-21)"
   sodipodi:docname="banner_waves.svg"
   xml:space="preserve"
   inkscape:export-filename="move logo-banner.png"
   inkscape:export-xdpi="96"
   inkscape:export-ydpi="96"
   xmlns:inkscape="http://www.inkscape.org/namespaces/inkscape"
   xmlns:sodipodi="http://sodipodi.sourceforge.net/DTD/sodipodi-0.dtd"
   xmlns="http://www.w3.org/2000/svg"
   xmlns:svg="http://www.w3.org/2000/svg"><sodipodi:namedview
     id="namedview7"
     pagecolor="#ffffff"
     bordercolor="#000000"
     borderopacity="0.25"
     inkscape:showpageshadow="2"
     inkscape:pageopacity="0.0"
     inkscape:pagecheckerboard="0"
     inkscape:deskcolor="#d1d1d1"
     inkscape:document-units="mm"
     showgrid="false"
     inkscape:zoom="0.7162458"
     inkscape:cx="615.71042"
     inkscape:cy="394.41767"
     inkscape:window-width="1920"
     inkscape:window-height="991"
     inkscape:window-x="-9"
     inkscape:window-y="-9"
     inkscape:window-maximized="1"
     inkscape:current-layer="layer1"
     inkscape:export-bgcolor="#ffffffff" /><defs
     id="defs2"><inkscape:path-effect
       effect="spiro"
       id="path-effect7"
       is_visible="true"
       lpeversion="1" /><inkscape:path-effect
       effect="spiro"
       id="path-effect5"
       is_visible="true"
       lpeversion="1" /><inkscape:path-effect
       effect="spiro"
       id="path-effect4"
       is_visible="true"
       lpeversion="1" /><inkscape:path-effect
       effect="spiro"
       id="path-effect2"
       is_visible="true"
       lpeversion="1" /></defs><g
     inkscape:label="Layer 1"
     inkscape:groupmode="layer"
     id="layer1"><g
       id="g9"><path
         style="fill:#ff7032;fill-opacity:1;stroke:none;stroke-width:1.31683;stroke-linecap:round;stroke-linejoin:round;stroke-dasharray:none"
         d="m 0,138.4399 c 0,0 35.310873,29.77763 47.766737,35.5242 12.455863,5.74656 51.492056,-33.95696 86.493843,-28.73281 35.00178,5.22414 107.12065,65.55179 143.14163,9.40346 4.92913,-7.68337 43.78238,-19.69891 60.60011,-19.69891 11.57553,0 21.99767,2.45923 21.99767,2.45923 V 200 H 0 v -61.5601"
         id="path8"
         sodipodi:nodetypes="csssscccc" /><path
         style="fill:#ff822f;fill-opacity:1;stroke:none;stroke-width:1.31683;stroke-linecap:round;stroke-linejoin:round;stroke-dasharray:none"
         d="m 0,166.12788 c 0,0 47.766737,-18.34186 75.508572,-16.19486 40.940788,3.16849 65.077248,28.73281 104.491428,14.1052 39.41417,-14.62762 73.82593,-33.43454 102.33134,-28.2104 28.50542,5.22415 77.66865,18.80693 77.66865,18.80693 V 200 H 0 v -32.8273"
         id="path7"
         sodipodi:nodetypes="cssscccc" /><path
         style="fill:#fa4b00;fill-opacity:1;stroke:none;stroke-width:1.31683;stroke-linecap:round;stroke-linejoin:round;stroke-dasharray:none"
         d="m 0,169.21995 c 0,0 9.0470419,10.41547 42.038186,0.57768 29.382674,-8.76176 62.802064,-17.52042 83.341344,-19.08099 22.45775,-1.70632 56.44636,48.66562 95.31633,26.21358 77.00959,-44.48222 63.98691,-27.6651 102.65532,-9.4623 16.41611,7.72773 36.64881,1.22961 36.64881,1.22961 l 0,31.30247 H 0 Z"
         id="path9"
         sodipodi:nodetypes="csssscccc" /></g></g></svg>
