<?xml version="1.0" encoding="UTF-8" standalone="no"?>
<!-- Created with Inkscape (http://www.inkscape.org/) -->

<svg
   width="180mm"
   height="180mm"
   viewBox="0 0 180 180"
   version="1.1"
   id="svg5"
   inkscape:version="1.3 (0e150ed6c4, 2023-07-21)"
   sodipodi:docname="move logo+ name.svg"
   xml:space="preserve"
   xmlns:inkscape="http://www.inkscape.org/namespaces/inkscape"
   xmlns:sodipodi="http://sodipodi.sourceforge.net/DTD/sodipodi-0.dtd"
   xmlns:xlink="http://www.w3.org/1999/xlink"
   xmlns="http://www.w3.org/2000/svg"
   xmlns:svg="http://www.w3.org/2000/svg"><sodipodi:namedview
     id="namedview7"
     pagecolor="#ffffff"
     bordercolor="#000000"
     borderopacity="0.25"
     inkscape:showpageshadow="2"
     inkscape:pageopacity="0.0"
     inkscape:pagecheckerboard="0"
     inkscape:deskcolor="#d1d1d1"
     inkscape:document-units="mm"
     showgrid="false"
     inkscape:zoom="1.0129245"
     inkscape:cx="182.14586"
     inkscape:cy="568.15686"
     inkscape:window-width="1920"
     inkscape:window-height="991"
     inkscape:window-x="-9"
     inkscape:window-y="-9"
     inkscape:window-maximized="1"
     inkscape:current-layer="g4" /><defs
     id="defs2"><inkscape:path-effect
       effect="simplify"
       id="path-effect3"
       is_visible="false"
       lpeversion="1.3"
       threshold="100"
       steps="1"
       smooth_angles="0"
       helper_size="30"
       simplify_individual_paths="false"
       simplify_just_coalesce="false" /><inkscape:path-effect
       effect="simplify"
       id="path-effect1"
       is_visible="true"
       lpeversion="1.3"
       threshold="5"
       steps="1"
       smooth_angles="360"
       helper_size="10"
       simplify_individual_paths="false"
       simplify_just_coalesce="false" /><inkscape:path-effect
       effect="spiro"
       id="path-effect7"
       is_visible="true"
       lpeversion="1" /><inkscape:path-effect
       effect="spiro"
       id="path-effect5"
       is_visible="true"
       lpeversion="1" /><inkscape:path-effect
       effect="spiro"
       id="path-effect4"
       is_visible="true"
       lpeversion="1" /><inkscape:path-effect
       effect="spiro"
       id="path-effect2"
       is_visible="true"
       lpeversion="1" /><linearGradient
       inkscape:collect="always"
       id="linearGradient4232"><stop
         style="stop-color:#212121;stop-opacity:1;"
         offset="0"
         id="stop4228" /><stop
         style="stop-color:#000000;stop-opacity:1;"
         offset="1"
         id="stop4230" /></linearGradient><linearGradient
       inkscape:collect="always"
       xlink:href="#linearGradient4232"
       id="linearGradient4234"
       x1="73.467865"
       y1="58.626102"
       x2="44.436947"
       y2="109.71588"
       gradientUnits="userSpaceOnUse" /></defs><g
     inkscape:label="Layer 1"
     inkscape:groupmode="layer"
     id="layer1"><g
       id="g6098"
       transform="translate(26,7.3880596)"><ellipse
         style="opacity:1;fill:#fa4b00;fill-opacity:1;stroke:#000000;stroke-width:8.75049;stroke-linecap:round;stroke-linejoin:round;stroke-dasharray:none;stroke-opacity:0;stop-color:#000000"
         id="path2936"
         cx="64"
         cy="64"
         rx="61.964413"
         ry="61.572601" /><g
         id="g2882"
         inkscape:label="moofa"
         transform="rotate(123.24799,66.046331,66.599868)"
         inkscape:transform-center-x="13.128907"
         inkscape:transform-center-y="-57.432844"><path
           style="opacity:1;fill:#4d4d4d;stroke:#1e1e1e;stroke-width:8.5;stroke-linecap:round;stroke-linejoin:round;stroke-dasharray:none;stroke-opacity:1;stop-color:#000000"
           d="m 81.177298,50.404359 c 0,0 7.069996,-11.009194 29.041092,-16.086975"
           id="path2994"
           sodipodi:nodetypes="cc" /><path
           style="opacity:1;fill:none;stroke:url(#linearGradient4234);stroke-width:8.5;stroke-linecap:round;stroke-dasharray:none;stroke-opacity:1;stop-color:#000000"
           d="M 53.878726,116.36635 C 50.837567,107.00004 51.097505,83.287136 64.551279,79.95837"
           id="path185"
           sodipodi:nodetypes="cc" /><path
           style="opacity:1;fill:none;stroke:#000000;stroke-width:8.5;stroke-linecap:round;stroke-dasharray:none;stop-color:#000000"
           d="M 81.758471,108.97833 C 64.222592,112.58407 42.727155,53.556512 112.50631,36.275916"
           id="path295"
           sodipodi:nodetypes="cc" /><g
           id="g2875"
           transform="rotate(-38.718371,76.696273,42.693723)"><rect
             style="opacity:0.98;fill:#000000;stroke:#ffffff;stroke-width:0.000726652;stroke-linecap:round;-inkscape-stroke:none;stop-color:#000000"
             id="rect1494"
             width="14.758216"
             height="23.704567"
             x="77.87352"
             y="3.2489464"
             ry="7.379108"
             transform="matrix(0.76782919,0.64065462,0.64065462,-0.76782919,0,0)" /><path
             id="rect670"
             style="opacity:0.98;fill:#b3b3b3;fill-opacity:1;stroke:#ffffff;stroke-width:0.0253753;stroke-linecap:round;-inkscape-stroke:none;stop-color:#000000"
             d="m 73.734691,33.562441 c -0.508932,0.362033 -0.980857,0.794839 -1.400645,1.297959 l -5.73144,6.869171 c -0.43491,0.521243 -0.785463,1.08405 -1.054303,1.67174 l 1.10267,0.920036 c 1.361118,1.135677 3.371198,0.954183 4.506874,-0.406934 l 4.099939,-4.913807 c 1.135677,-1.361116 0.954183,-3.371196 -0.406934,-4.506873 z" /></g></g></g><g
       id="g4"
       style="font-size:25.4px;stroke:#1e1e1e;stroke-width:0.348861;stroke-linecap:round;stroke-linejoin:round;stop-color:#000000"
       transform="matrix(1.2846001,0,0,1.1408582,4.6799299,-43.635538)"
       inkscape:label="move"><path
         d="m 103.80337,182.51112 c -13.247388,6.04531 -17.373063,-11.07617 -6.746983,-13.01484 4.507143,-1.04269 7.900233,3.10185 7.933433,5.56085 -6.596548,1.88686 -9.227744,2.72037 -13.69864,3.56605"
         style="font-family:Bahnschrift;-inkscape-font-specification:Bahnschrift;fill:none;stroke:#000000;stroke-width:4.95622987;stroke-dasharray:none"
         id="path6322"
         sodipodi:nodetypes="cccc"
         inkscape:label="E" /><path
         d="m 84.849049,169.87436 c -1.49165,4.33424 -2.994518,8.67333 -4.836914,12.87363 -0.477244,0.69689 -1.81056,0.53514 -2.074179,-0.2966 -1.827753,-3.54097 -3.047728,-7.35446 -4.244863,-11.14375 -0.145828,-0.47679 -0.289561,-0.95424 -0.427833,-1.43328"
         style="font-size:25.4px;stroke:#000000;stroke-width:5.36924902;stroke-linecap:round;stroke-linejoin:round;stop-color:#000000;font-family:Bahnschrift;-inkscape-font-specification:Bahnschrift;fill:none;stroke-dasharray:none"
         id="path6320"
         inkscape:label="V" /><path
         id="rect4"
         style="fill:none;stroke:#000000;stroke-width:5.36924902;stroke-dasharray:none"
         d="m 60.600107,169.63214 c 3.416311,0 6.166627,2.80249 6.166627,6.28362 v 1.21617 c 0,3.48113 -2.750316,6.28362 -6.166627,6.28362 -3.416312,0 -6.166628,-2.80249 -6.166628,-6.28362 v -1.21617 c 0,-3.48113 2.750316,-6.28362 6.166628,-6.28362 z"
         inkscape:label="O" /><path
         id="path2"
         style="font-size:25.4px;stroke:#000000;stroke-width:5.36924902;stroke-linecap:round;stroke-linejoin:round;stop-color:#000000;fill:none;stroke-dasharray:none"
         d="m 48.102685,183.51562 v -14.17898 c 0,-0.7966 -0.0039,-1.59685 -0.124024,-2.38435 -0.39883,-2.61538 -2.167995,-4.58396 -4.705139,-4.5284 -3.742319,0.0818 -4.298776,5.17792 -5.153428,5.4885 -0.632316,-0.3948 -1.923309,-5.41705 -5.188062,-5.4885 -2.537532,-0.0554 -4.306355,1.91332 -4.705139,4.5284 -0.12009,0.7875 -0.124024,1.58775 -0.124024,2.38435 v 14.17898"
         sodipodi:nodetypes="cssscsssc"
         inkscape:label="M" /></g></g></svg>
